PathFileType  4	(X/Y/Z) C:\Users\antoi\Documents\MyRepositories\mobilecap\ResultsAnalysis
DataRate	CameraRate	NumFrames	NumMarkers	Units	OrigDataRate	OrigDataStartFrame	OrigNumFrames
100.0	100.0	4	51	mm	100.0	143	1137
Frame#	Time	r_knee			r_shank_antsup			r_ankle			r_calc			r_5meta			r_toe			L_knee			L_shank_antsup			L_ankle			L_calc			L_5meta			L_toe			r_sh2			r_sh3			r_sh4			L_sh2			L_sh3			r_thigh1			r_thigh2			r_thigh3			r_thigh4			r_thigh5			L_thigh1			L_thigh2			L_thigh3			L_thigh4			r.ASIS			r.PSIS			L.ASIS			L.PSIS			C7			R_Shoulder			L_Shoulder			R_Sternum			L_Sternum			R_humerus			R_elbow_med			R_elbow_lat			R_forearm			R_wrist_radius			R_wrist_ulna			L_humerus			L_elbow_med			L_elbow_lat			L_forearm			L_wrist_radius			L_wrist_ulna			R_HJC			L_HJC			R_HJC_reg			L_HJC_reg			
		X1	Y1	Z1	X2	Y2	Z2	X3	Y3	Z3	X4	Y4	Z4	X5	Y5	Z5	X6	Y6	Z6	X7	Y7	Z7	X8	Y8	Z8	X9	Y9	Z9	X10	Y10	Z10	X11	Y11	Z11	X12	Y12	Z12	X13	Y13	Z13	X14	Y14	Z14	X15	Y15	Z15	X16	Y16	Z16	X17	Y17	Z17	X18	Y18	Z18	X19	Y19	Z19	X20	Y20	Z20	X21	Y21	Z21	X22	Y22	Z22	X23	Y23	Z23	X24	Y24	Z24	X25	Y25	Z25	X26	Y26	Z26	X27	Y27	Z27	X28	Y28	Z28	X29	Y29	Z29	X30	Y30	Z30	X31	Y31	Z31	X32	Y32	Z32	X33	Y33	Z33	X34	Y34	Z34	X35	Y35	Z35	X36	Y36	Z36	X37	Y37	Z37	X38	Y38	Z38	X39	Y39	Z39	X40	Y40	Z40	X41	Y41	Z41	X42	Y42	Z42	X43	Y43	Z43	X44	Y44	Z44	X45	Y45	Z45	X46	Y46	Z46	X47	Y47	Z47	X48	Y48	Z48	X49	Y49	Z49	X50	Y50	Z50	X51	Y51	Z51	

143	1.42000000	-271.88299	481.62989	-383.72678	-235.94395	370.34452	-385.13293	-300.94805	92.02430	-386.87736	-342.92779	51.33297	-440.56500	-190.15110	41.74930	-342.37245	-150.36788	60.74053	-381.65233	-260.63937	481.67318	-787.39629	-222.41421	377.27480	-754.44681	-306.16531	92.55462	-796.49734	-348.87437	51.59033	-745.69278	-186.40047	35.72182	-816.31638	-146.40147	56.79258	-766.46052	-244.18662	258.58417	-388.07247	-297.79063	371.31925	-341.24639	-319.36330	261.87644	-356.05102	-274.48151	402.94723	-822.04648	-287.02460	282.84862	-837.75015	-179.29708	783.09463	-413.08306	-177.50532	674.10773	-402.13246	-227.00631	651.61372	-361.58898	-286.77500	782.11760	-378.48647	-280.40313	666.99923	-364.80446	-187.84294	773.98954	-775.12733	-179.13322	638.45069	-780.22449	-296.33157	777.44513	-803.00496	-287.08521	637.28671	-807.34130	-170.90459	944.23761	-461.55459	-352.32857	979.54251	-537.95428	-161.93132	947.94151	-711.53300	-353.22014	980.69187	-652.49828	-330.30494	1436.55814	-596.28952	-280.93486	1422.39882	-445.42749	-258.09532	1427.86131	-743.46055	-201.72739	1392.37176	-573.03119	-197.82530	1389.07961	-612.56399	-290.77177	1307.62175	-364.61972	-407.09042	1121.11155	-395.83425	-372.86930	1141.65551	-321.48125	-254.06712	1147.86868	-357.43735	-168.73005	1169.86627	-407.77834	-157.62635	1136.94095	-393.98959	-254.59197	1286.86999	-823.28555	-341.59587	1103.24065	-786.15956	-324.14473	1113.81528	-866.03624	-220.62290	1130.30145	-840.63275	-119.87672	1168.21519	-770.84851	-107.57153	1137.31904	-777.45392	-255.99258	869.02469	-493.73599	-245.23746	868.29145	-682.80676	-236.27024	871.15835	-496.88954	-237.55527	872.81484	-661.98636	
144	1.43000000	-271.80082	481.46331	-383.68209	-235.94691	370.21545	-385.15607	-301.16881	91.81627	-386.84315	-343.06617	51.13092	-440.60317	-190.31809	41.80231	-342.69054	-150.48699	61.29894	-381.71923	-260.77816	481.57055	-787.04166	-222.52234	377.11737	-754.12449	-306.21697	92.52521	-796.52590	-348.99006	51.24123	-745.08473	-186.43446	35.80971	-816.30687	-146.46543	56.89276	-766.38769	-244.13074	258.22632	-388.28250	-297.67868	371.16840	-340.99600	-319.36607	261.89259	-355.96310	-274.63005	402.87969	-821.80766	-287.18494	282.77691	-837.66193	-179.37961	782.92532	-413.30631	-177.59184	674.05332	-402.19025	-226.79239	651.33894	-361.71324	-286.77646	781.87198	-378.26320	-280.24014	666.95956	-364.54527	-188.10920	773.85688	-774.90410	-179.38267	638.28918	-779.77545	-296.56539	777.31984	-802.82818	-287.31541	637.08175	-806.93041	-171.04874	943.93746	-461.60773	-352.47435	979.82723	-537.65602	-162.18878	947.70219	-711.50508	-353.41849	980.76610	-652.15613	-330.07700	1436.66015	-595.95913	-280.84725	1422.57958	-445.19369	-258.01039	1428.23796	-743.16781	-201.58945	1392.64397	-572.76382	-197.72120	1389.39864	-612.29123	-290.73248	1307.97150	-364.20256	-406.98140	1121.37783	-395.17154	-372.67389	1141.91722	-320.86177	-253.88606	1148.14329	-356.75085	-168.65795	1170.21106	-407.17242	-157.55170	1137.20007	-393.68967	-254.06966	1287.13510	-822.96163	-341.38156	1103.37424	-786.17560	-323.41324	1114.02877	-866.16718	-220.17764	1130.64576	-840.32486	-119.61028	1168.85178	-770.42236	-107.21989	1137.93808	-776.89012	-256.29411	868.96532	-493.59176	-245.75013	868.21824	-682.67432	-236.72273	871.35628	-496.75552	-238.08371	872.70959	-661.79897	
145	1.44000000	-271.61877	481.24133	-383.71275	-235.94398	370.01311	-385.14389	-301.42833	91.54354	-386.96538	-343.23740	50.87258	-440.65924	-190.51317	42.02875	-342.86676	-150.65559	61.86378	-381.69271	-260.95986	481.39772	-786.73719	-222.63433	376.87891	-753.68198	-306.29914	92.49325	-796.57098	-348.96289	51.37665	-745.62796	-186.48417	35.85983	-816.27196	-146.55449	56.95925	-766.26121	-244.02230	257.74976	-388.54036	-297.57436	370.96487	-340.71447	-319.36601	261.88936	-355.83169	-274.74569	402.76135	-821.36778	-287.29190	282.72726	-837.62422	-179.41827	782.66321	-413.79038	-177.52993	673.88834	-402.50668	-226.24765	650.99956	-362.00447	-286.58339	781.64578	-377.89274	-279.83421	666.93989	-364.08905	-188.31216	773.68053	-774.65898	-179.48946	638.10296	-779.27201	-296.71809	777.08362	-802.64659	-287.35177	636.82216	-806.65588	-171.25933	943.63887	-461.66253	-352.72959	980.09947	-537.39438	-162.50784	947.44984	-711.48302	-353.65638	980.86355	-651.88877	-329.72049	1436.76215	-595.68676	-280.60359	1422.66386	-444.96113	-257.85345	1428.51637	-742.84265	-201.34685	1392.82007	-572.52896	-197.42569	1389.58099	-612.00104	-290.67204	1308.29274	-363.83035	-406.74334	1121.61317	-394.59415	-372.48063	1142.12726	-320.24857	-253.62406	1148.20903	-356.15430	-168.47407	1170.34945	-406.48338	-157.36663	1137.21752	-393.37600	-253.56159	1287.41333	-822.60174	-341.14675	1103.64315	-786.06956	-322.78143	1114.23428	-866.07930	-219.73674	1130.98698	-839.97283	-119.43510	1169.41526	-770.06030	-106.84218	1138.47551	-776.72006	-256.68827	868.90640	-493.47594	-246.31836	868.14439	-682.56804	-237.27501	871.50008	-496.69145	-238.61062	872.60129	-661.68416	
146	1.45000000	-271.35559	481.04253	-383.69749	-235.91014	369.75444	-385.23593	-301.68204	91.38795	-387.07667	-343.39869	50.65985	-440.70853	-190.67769	42.44718	-342.84218	-150.83427	62.36305	-381.66840	-261.10144	481.18639	-786.44876	-222.75177	376.65923	-753.29541	-306.36302	92.38828	-796.51247	-348.66022	52.31466	-748.03588	-186.55694	35.86868	-816.21903	-146.62726	57.02310	-766.16373	-244.16886	257.55673	-388.62094	-297.43264	370.76109	-340.52721	-319.35467	261.85265	-355.70564	-274.81493	402.62740	-820.90266	-287.33123	282.70431	-837.58590	-179.45094	782.45418	-414.41243	-177.42328	673.71234	-403.04581	-225.56888	650.80964	-362.26639	-286.29537	781.46752	-377.39252	-279.32676	666.89305	-363.59668	-188.52643	773.49430	-774.39672	-179.56055	637.90353	-778.84095	-296.86253	776.79726	-802.49137	-287.28305	636.61773	-806.55284	-171.58027	943.39194	-461.69618	-353.05068	980.37485	-537.18890	-162.92228	947.15795	-711.40145	-353.95596	981.03125	-651.69411	-329.30452	1436.84287	-595.45023	-280.20361	1422.69047	-444.75121	-257.60671	1428.67290	-742.50740	-200.97600	1392.93308	-572.34603	-197.00605	1389.65756	-611.79483	-290.50578	1308.56499	-363.51470	-406.39512	1121.89029	-394.06392	-372.23169	1142.39876	-319.57708	-253.27253	1148.13133	-355.66042	-168.16862	1170.28653	-405.86107	-157.07195	1137.06190	-393.00049	-253.15299	1287.71403	-822.38114	-340.83960	1103.99873	-786.02762	-322.20140	1114.54502	-866.04239	-219.25079	1131.33777	-839.67637	-119.27856	1169.81071	-769.68303	-106.47632	1138.80437	-776.69041	-257.21234	868.89109	-493.34943	-246.96322	868.06880	-682.44788	-237.89040	871.57629	-496.64683	-239.19418	872.52156	-661.56221	
